<svg width="637" height="882" viewBox="0 0 637 882" fill="none" xmlns="http://www.w3.org/2000/svg">
<path d="M28 649.5C34.2662 658.899 49.352 660.438 56.55 660.029C56.8393 660.012 57.0998 659.867 57.2737 659.635L61.2859 654.285C61.4244 654.101 61.4947 653.874 61.485 653.643L55.0189 499.949C55.0069 499.664 54.8756 499.399 54.6541 499.218C50.0111 495.426 40.5104 487.51 37 484C32.5 479.5 14.5 479 9.5 484C4.5 489 4 504.5 4 516.5C4 528.5 10 546 14.5 554C19 562 19 579 18 592C17 605 20 637.5 28 649.5Z" fill="#B0826B" stroke="#B0826B"/>
<path d="M605.5 669C599.614 674.101 588.116 674.487 582.803 674.028C582.603 674.01 582.417 673.931 582.263 673.803L576.886 669.322C576.643 669.119 576.51 668.814 576.528 668.498L584.986 515.762C584.995 515.59 585.049 515.424 585.141 515.279L599.714 492.449C599.893 492.168 600.196 491.995 600.529 491.987C607.562 491.822 621.6 491.61 625.5 492C630.5 492.5 634.5 498 635.5 508.5C636.5 519 625.5 536 623.5 543.5C621.5 551 620 639 619.5 644.5C619 650 613 662.5 605.5 669Z" fill="#B0826B" stroke="#B0826B"/>
<path d="M33 481.5C46.4164 491.85 49.8839 509.149 50.0029 517.467C50.0111 518.034 50.472 518.492 51.0394 518.482L591.549 509.008C591.836 509.003 592.107 508.875 592.293 508.657L609.28 488.757C609.423 488.59 609.506 488.381 609.518 488.162L612.5 433V424.5C612.5 423.948 612.948 423.5 613.5 423.5H620C620.552 423.5 621 423.052 621 422.5V415.773C621 415.318 620.693 414.92 620.252 414.805L612.685 412.831C611.728 412.581 611.675 411.243 612.609 410.919L619.768 408.428C620.39 408.212 620.637 407.466 620.267 406.922L613.1 396.383C612.775 395.905 612.922 395.252 613.42 394.959L620.507 390.79C620.812 390.61 621 390.282 621 389.928V376.542C621 376.204 620.829 375.889 620.546 375.704L611.127 369.561C610.446 369.117 610.552 368.089 611.309 367.792L620.077 364.361C620.588 364.161 620.843 363.587 620.647 363.074L617.059 353.656C617.02 353.553 616.964 353.457 616.893 353.372L610.006 345.108C609.71 344.751 609.696 344.238 609.974 343.867L616.442 335.244C616.756 334.825 616.694 334.234 616.298 333.89L606.649 325.5C606.106 325.027 606.225 324.153 606.874 323.843L616.431 319.272C616.779 319.106 617 318.755 617 318.37V305.298C617 304.831 616.677 304.427 616.222 304.323L598.488 300.293C597.501 300.069 597.434 298.689 598.393 298.369L605.082 296.139C605.348 296.051 605.565 295.854 605.679 295.597L609.071 287.965C609.304 287.441 609.049 286.828 608.513 286.624L590.232 279.66C589.489 279.377 589.358 278.381 590.003 277.915L597.394 272.576C597.464 272.526 597.528 272.466 597.583 272.399L601.141 268.049C601.568 267.528 601.368 266.743 600.744 266.49L587.678 261.182C586.949 260.885 586.832 259.902 587.47 259.443L600.759 249.892C601.345 249.471 601.306 248.588 600.686 248.22L586.489 239.791C586.186 239.61 586 239.271 586.002 238.918C586.144 220.515 593.021 221.168 595 208.5C596.992 195.751 580.631 185.085 580.501 167.709C580.5 167.572 580.472 167.434 580.417 167.309C560.063 120.359 524.52 91.6555 509.134 83.0744C509.041 83.0228 508.963 82.9596 508.89 82.8819C478.799 50.4836 441.37 38.5589 425.94 36.5551C425.651 36.5177 425.408 36.362 425.243 36.1225C409.533 13.2865 370.234 3.23953 352.227 1.02761C352.073 1.00867 351.932 1.02443 351.786 1.07627C342.769 4.26715 317.967 10.5 289 10.5C252.5 10.5 246.5 17 239 22.5C233.222 26.737 229.145 42.4415 227.66 50.5938C227.566 51.107 227.089 51.4629 226.569 51.4185C188.165 48.1437 167.336 57.0679 147 65.5C130.659 72.2754 119.911 97.4837 116.536 109.371C116.511 109.459 116.5 109.546 116.5 109.638V120.5C116.5 121.052 116.052 121.5 115.5 121.5H99.193C98.7762 121.5 98.403 121.759 98.2567 122.149L94.2049 132.954C94.0783 133.291 93.7797 133.535 93.4235 133.59L69.1545 137.397C68.7578 137.46 68.4367 137.753 68.3393 138.143L63.6485 156.906C63.5574 157.27 63.2695 157.553 62.9033 157.638L57.3512 158.919C57.1242 158.971 56.9226 159.101 56.7813 159.286L21.7052 205.231C21.5721 205.406 21.5 205.619 21.5 205.838V225.5C21.5 226.052 21.0523 226.5 20.5 226.5H13.1037C12.7325 226.5 12.3917 226.706 12.2188 227.034L7.57072 235.866C7.52384 235.955 7.49068 236.05 7.47235 236.149L5.21891 248.318C5.10506 248.933 5.57696 249.5 6.20219 249.5H8.9382C9.51404 249.5 9.97089 249.985 9.93641 250.56L8.53338 273.944C8.51263 274.29 8.31433 274.6 8.00928 274.764L2.496 277.733C2.18808 277.899 1.98915 278.213 1.97139 278.563L0.544618 306.623C0.519098 307.124 0.870014 307.567 1.36444 307.657L5.03971 308.325C5.57379 308.423 5.93287 308.928 5.84875 309.464L2.18117 332.845C2.08601 333.452 2.55502 334 3.16909 334H11.9027C12.2706 334 12.6088 334.202 12.7832 334.526L15.2063 339.026C15.565 339.692 15.0825 340.5 14.3258 340.5H12.5752C11.6067 340.5 11.2038 341.739 11.987 342.309L12.513 342.691C13.2962 343.261 12.8933 344.5 11.9248 344.5H6.17028C5.5558 344.5 5.08668 345.049 5.18252 345.656L7.86673 362.656C7.94348 363.142 8.36242 363.5 8.85449 363.5H15C15.5523 363.5 16 363.948 16 364.5V388.882C16 389.625 16.7823 390.109 17.4472 389.776L21.5528 387.724C22.2177 387.391 23 387.875 23 388.618V407C23 407.552 22.5523 408 22 408H17.2719C16.6241 408 16.1473 408.607 16.3002 409.236L32.4521 475.744C32.6592 476.597 31.7428 477.288 30.9715 476.87C25.6059 473.96 20.5797 471.919 33 481.5Z" fill="#181822" stroke="#181822"/>
<path d="M105.382 295.036C123.311 285.255 148.571 257.883 160.189 243.876C160.401 243.62 160.573 243.345 160.716 243.045C181.275 200.177 234.418 182.822 258.5 179.5H339L420.334 174.078C421.096 174.027 421.833 174.182 422.501 174.55C462.33 196.434 540.723 241.687 543.5 252C546.258 262.246 542.45 314.743 540.105 340.839C540.036 341.61 540.192 342.364 540.553 343.048L582.641 422.82C582.878 423.269 583.026 423.74 583.079 424.245C586.272 454.391 592.603 517.752 593 536C593.5 559 577.5 725 573 744.5C568.5 764 551 803 537.5 820C524 837 474.5 867 461 873C447.5 879 422 880.5 309 880.5C196 880.5 207 875.5 159.5 854C112 832.5 84.5 795.5 72 777.5C59.5 759.5 62.5 714 60 682.5C57.5 651 53 574.5 53 551.5V484.823C53 484.601 53.0168 484.399 53.0535 484.181C58.425 452.233 72.1413 387.48 84.5 381.5C96.4815 375.702 109.428 337.383 114.949 317.061C115.299 315.772 114.968 314.4 114.082 313.399L103.929 301.936C102.049 299.814 102.894 296.394 105.382 295.036Z" fill="#C18E74" stroke="#C18E74" stroke-width="2"/>
<path d="M268 732.5C264.448 719.08 276.832 704.231 283.726 698.236C283.906 698.08 284.131 698 284.369 698H392.586C392.851 698 393.107 698.103 393.282 698.302C394.675 699.894 397 703.898 397 709.5C397 717 387 721.5 383 724C379 726.5 368 721.5 362 729C356 736.5 368 729 373 732.5C378 736 374.5 743.5 368 752C361.5 760.5 327.5 767.5 310 765.5C292.5 763.5 272.5 749.5 268 732.5Z" fill="#926D5A" stroke="#926D5A"/>
<path d="M211 355C230.615 355.37 256.022 364.044 268.688 369.299C270.023 369.853 271.5 368.877 271.5 367.432V348.311C271.5 347.515 271.036 346.797 270.302 346.487C261.945 342.963 243.485 336.164 227.5 333.5C210.947 330.741 180.413 332.286 166.606 333.448C166.203 333.482 165.833 333.637 165.52 333.894L127.887 364.837C126.238 366.193 127.576 368.88 129.653 368.386C153.197 362.793 192.339 354.648 211 355Z" fill="#333333"/>
<path d="M405.187 343.317L397.701 362.864C397.159 364.279 398.314 365.763 399.818 365.577C420.295 363.042 461.535 359.23 486.5 361.5C505.867 363.261 521.574 370.69 531.135 376.958C532.961 378.155 535.389 376.148 534.251 374.284C527.901 363.885 517.998 350.345 512.439 343.073C512.152 342.698 511.753 342.446 511.292 342.346C501.682 340.273 479.114 335.84 460 333.5C440.909 331.162 416.789 338.123 406.308 342.182C405.788 342.383 405.387 342.796 405.187 343.317Z" fill="#333333"/>
<path d="M211 355C230.615 355.37 256.022 364.044 268.688 369.299C270.023 369.853 271.5 368.877 271.5 367.432V348.311C271.5 347.515 271.036 346.797 270.302 346.487C261.945 342.963 243.485 336.164 227.5 333.5C210.947 330.741 180.413 332.286 166.606 333.448C166.203 333.482 165.833 333.637 165.52 333.894L127.887 364.837C126.238 366.193 127.576 368.88 129.653 368.386C153.197 362.793 192.339 354.648 211 355Z" stroke="#333333" stroke-width="2"/>
<path d="M405.187 343.317L397.701 362.864C397.159 364.279 398.314 365.763 399.818 365.577C420.295 363.042 461.535 359.23 486.5 361.5C505.867 363.261 521.574 370.69 531.135 376.958C532.961 378.155 535.389 376.148 534.251 374.284C527.901 363.885 517.998 350.345 512.439 343.073C512.152 342.698 511.753 342.446 511.292 342.346C501.682 340.273 479.114 335.84 460 333.5C440.909 331.162 416.789 338.123 406.308 342.182C405.788 342.383 405.387 342.796 405.187 343.317Z" stroke="#333333" stroke-width="2"/>
<path d="M581 500.5C589.4 512.9 590.833 552 590.5 570C585.667 623.167 575.2 733.4 572 749C568 768.5 543 813.5 533 824C525.049 832.349 497.339 851.268 484.238 859.844C484.076 859.95 483.905 860.028 483.719 860.083L443.852 871.896C443.619 871.965 443.376 871.991 443.134 871.972L301.041 861.267C299.487 861.15 298.658 859.378 299.564 858.11L326.847 819.915C327.252 819.347 327.924 819.032 328.621 819.08C340.614 819.904 367.918 820.937 390 819C418.5 816.5 437 813.5 464 809C491 804.5 463 798.5 484 773C505 747.5 466 753.5 475.5 713.5C485 673.5 505.5 677 521 660.5C536.5 644 531.5 621.5 543 607.5C554.5 593.5 552 602 564.5 602.5C577 603 578 558 581 538C584 518 564 492 564.5 487C565 482 570.5 485 581 500.5Z" fill="#8D6151" stroke="#8D6151" stroke-width="2"/>
<path d="M75 530.5C67.4152 528.504 57.5397 569.502 53.5241 590.374C53.5077 590.46 53.5032 590.544 53.5094 590.631L58 653L61.5 701.5L62.9975 744.928C62.9992 744.976 63.0038 745.021 63.0123 745.068C64.1871 751.602 67.1084 766.224 69.5 773C71.9 779.8 94.5 804.833 105.5 816.5L133.915 839.93C133.972 839.977 134.033 840.017 134.098 840.05L160.014 853.253C160.317 853.407 160.673 853.399 160.967 853.228C168.27 848.974 182 840.783 182 840C182 839 187.5 833 182 824C176.5 815 153 824.5 141.5 818.5C130 812.5 130 791.5 141.5 771.5C153 751.5 157 721.5 153 693C149 664.5 96.5 676 88 653C79.5 630 90.5 600 88 582.5C85.5 565 75 572 72 556.5C69 541 84.5 533 75 530.5Z" fill="#A87361" stroke="#A87361"/>
<path d="M160 844.5C156.493 847.227 161.241 853.339 164.262 856.272C164.419 856.425 164.595 856.543 164.794 856.634C174.745 861.188 195.351 870.624 200.5 873C207 876 230 878.5 243.5 879.5C257 880.5 387 879.5 400.5 879.5C414 879.5 456 876 458.5 874.5C460.287 873.428 473.919 865.621 482.627 860.642C483.934 859.895 483.831 858.292 482.338 858.094C478.571 857.597 471.702 857.902 461 861C446.876 865.088 431.947 859.996 424.956 856.313C424.1 855.862 423.76 854.841 424.022 853.908C428.266 838.781 410.564 828.684 398 834C385 839.5 375 832.5 366.5 834C358 835.5 357 846 359 850.5C361 855 367 855.5 364.5 857.5C362 859.5 324.5 857.5 322 855.5C319.5 853.5 318 848.5 324 841.5C330 834.5 336.5 828.5 326.5 817.5C316.5 806.5 257.5 811 251 814.5C246.034 817.174 248.577 834.045 250.703 843.252C250.88 844.017 251.504 844.574 252.245 844.832C259.336 847.31 261.964 858.634 252.5 861C242.5 863.5 214.5 859.5 198.5 856.5C182.5 853.5 164.5 841 160 844.5Z" fill="#7E5449" stroke="#7E5449" stroke-width="2"/>
<path d="M215.5 658C215.1 652.4 220.5 646.667 222.5 646L226.924 644.525C226.975 644.508 227.026 644.496 227.079 644.487L272.93 637.011C272.977 637.004 273.024 637 273.071 636.999L349.418 635.502C349.472 635.501 349.525 635.504 349.58 635.512C380.433 640.013 438.401 647.301 440 648.5C442 650 442 655.5 442 658C442 659.954 440.409 665.408 439.092 667.368C439.032 667.457 438.955 667.532 438.867 667.595L416.671 683.378C416.558 683.459 416.43 683.514 416.294 683.543L346.633 697.972C346.545 697.991 346.454 697.997 346.364 697.991L248.288 691.519C248.1 691.507 247.919 691.441 247.766 691.33L217.198 669.144C217.068 669.049 216.96 668.926 216.906 668.775C216.426 667.449 215.875 663.252 215.5 658Z" fill="#46120D" stroke="#46120D"/>
<path d="M398.338 652.971C379.943 649.646 342.12 646.202 315 647C300.103 647.438 279.726 647.921 262 652.5C248.048 656.104 235.882 663.177 228.114 666.965C227.541 667.245 227.366 667.978 227.754 668.485L244.715 690.627C244.895 690.863 245.172 691.007 245.469 691.019L308 693.5H391.748C391.914 693.5 392.076 693.459 392.222 693.381L430.405 672.857C431.098 672.485 431.109 671.495 430.425 671.107L398.648 653.084C398.55 653.028 398.448 652.991 398.338 652.971Z" fill="#F4F4F4" stroke="#F4F4F4"/>
<path d="M256 641.5C251.519 641.5 223.156 648.182 206.796 652.189C206.237 652.326 205.924 651.57 206.42 651.278C220.035 643.285 244.711 629.216 254 625.5C266.5 620.5 287 620.5 299 620.5C308.534 620.5 322.145 622.473 327.882 623.479C327.962 623.493 328.036 623.488 328.113 623.464C332.385 622.123 344.539 619.707 360 620.5C379.5 621.5 385.5 626.5 399.5 627.5C410.286 628.27 443.269 643.633 460.132 652.061C460.603 652.297 460.458 652.97 459.932 652.946C441.531 652.092 377.436 641.5 364 641.5C350 641.5 332.5 646 320.5 646C308.5 646 262 641.5 256 641.5Z" fill="#963E55" stroke="#963E55" stroke-width="2"/>
<path d="M252 688C242.127 685.617 223.828 672.683 212.33 663.746C211.841 663.366 211.198 664.054 211.621 664.506C222.663 676.309 240.076 693.884 247 697C257 701.5 280.5 707 290.5 709.5C300.5 712 329 712 341 712C353 712 378 711.5 386.5 709.5C395 707.5 404.5 701 414 694.5C420.84 689.82 437.104 673.718 446.606 663.984C447.019 663.561 446.481 662.897 445.979 663.21C438.211 668.04 425.671 675.585 418.5 679C408 684 382 690.5 376 690C370 689.5 354 686 343 686H313.5C298 686 266.5 691.5 252 688Z" fill="#B87F8A" stroke="#B87F8A" stroke-width="2"/>
<path d="M194.5 564C204.535 550.505 231.508 535.288 248.746 526.896C249.804 526.381 250.629 527.74 249.705 528.47L208.59 560.929C208.53 560.976 208.478 561.027 208.43 561.087C199.235 572.627 179.889 597.722 175.5 606.5C171.1 615.3 167 647.833 165.5 663C166 646.667 167.3 611.8 168.5 603C170 592 180 583.5 194.5 564Z" fill="#B0826B"/>
<path d="M442.5 548.5C439.3 543.3 415.5 529.333 404 523L445.755 542.386C445.915 542.461 446.053 542.577 446.154 542.722L498.282 617.686C498.422 617.888 498.483 618.135 498.453 618.379L495.258 644.299C495.11 645.5 493.351 645.457 493.263 644.25C492.583 634.836 491.783 623.896 491.5 620.5C491 614.5 446.5 555 442.5 548.5Z" fill="#B0826B"/>
<path d="M194.5 564C204.535 550.505 231.508 535.288 248.746 526.896C249.804 526.381 250.629 527.74 249.705 528.47L208.59 560.929C208.53 560.976 208.478 561.027 208.43 561.087C199.235 572.627 179.889 597.722 175.5 606.5C171.1 615.3 167 647.833 165.5 663C166 646.667 167.3 611.8 168.5 603C170 592 180 583.5 194.5 564Z" stroke="#B0826B" stroke-width="2"/>
<path d="M442.5 548.5C439.3 543.3 415.5 529.333 404 523L445.755 542.386C445.915 542.461 446.053 542.577 446.154 542.722L498.282 617.686C498.422 617.888 498.483 618.135 498.453 618.379L495.258 644.299C495.11 645.5 493.351 645.457 493.263 644.25C492.583 634.836 491.783 623.896 491.5 620.5C491 614.5 446.5 555 442.5 548.5Z" stroke="#B0826B" stroke-width="2"/>
<path d="M169.5 421C164.456 422.576 145.829 428.811 131.635 433.586C130.484 433.973 130.902 435.772 132.108 435.626C140.85 434.572 151.306 433.5 157 433.5C167.5 433.5 174 433 183 433.5C192 434 201 439 213.5 439C222.778 439 244.824 437.852 256.877 437.154C257.796 437.101 258.171 435.92 257.479 435.314C254.881 433.041 251.344 429.574 249.5 426.5C246.5 421.5 224.5 415 206.5 415C188.695 415 177.739 418.425 169.761 420.918L169.5 421Z" fill="#493630" stroke="#493630" stroke-width="2"/>
<path d="M189.5 422C190.21 419.515 192.286 417.239 193.21 416.293C193.395 416.103 193.649 416 193.914 416H214.41C214.47 416 214.527 416.005 214.586 416.016C221.95 417.356 236.805 420.203 238 421C239.5 422 240.5 427.5 240.5 431C240.5 433.511 239.16 436.477 238.282 438.024C238.112 438.324 237.792 438.5 237.447 438.5H213.5C208.757 438.5 198.251 436.384 192.697 435.047C192.565 435.016 192.443 434.96 192.346 434.866C191.579 434.124 189.904 431.616 189.5 430C189 428 188.5 425.5 189.5 422Z" fill="#F4F4F4" stroke="#F4F4F4"/>
<path d="M199 425C199 421.618 201.648 417.97 203.213 416.298C203.394 416.104 203.649 416 203.914 416H214.409C214.469 416 214.53 416.006 214.59 416.017L233.067 419.42C233.343 419.471 233.587 419.635 233.727 419.878C236 423.81 236 428.578 236 431C236 433.5 235 435.5 234.5 436.5C234.112 437.277 231.491 438.117 230.119 438.47C230.04 438.49 229.959 438.5 229.877 438.5H212.5L201.799 437.527C201.604 437.509 201.416 437.437 201.274 437.302C199 435.128 199 429.36 199 425Z" fill="#2F231F" stroke="#2F231F"/>
<path d="M207.064 425.5C206.707 423.713 207.919 421.527 208.776 420.368C208.953 420.13 209.296 419.956 209.473 420.194C209.528 420.268 209.564 420.368 209.564 420.5C209.564 421 208.564 422.5 208.064 424.5C207.564 426.5 210.064 430.5 209.064 430.5C208.064 430.5 207.564 428 207.064 425.5L207.064 425.5Z" fill="#ECEAD9" stroke="#ECEAD9"/>
<path d="M239.5 454C243.009 452.496 249.581 451.961 255.476 451.853C256.669 451.831 256.793 453.396 255.622 453.629C248.925 454.962 241.634 456.666 239.5 458C235.5 460.5 225 464.5 216.5 463.5C208 462.5 190 458 184.5 458C181.772 458 174.677 456.975 167.93 455.879C166.727 455.683 166.871 454 168.09 454H183.5C190.5 454 202.5 458 216.5 459.5C230.5 461 232.5 457 239.5 454Z" fill="#A87361" stroke="#A87361"/>
<path d="M430.5 421.5C424.296 422.595 414.567 432.375 409.366 438.384C408.813 439.023 409.27 440 410.116 440H430.5H458.5H491C498.94 440 518.073 443.498 532.687 446.487C533.89 446.733 534.436 444.944 533.297 444.486C514.598 436.966 488.687 426.614 481.5 424C470.5 420 439 420 430.5 421.5Z" fill="#493630" stroke="#493630"/>
<path d="M431.5 429C431.5 425.962 433.152 423.134 434.746 421.287C434.907 421.1 435.124 420.987 435.37 420.965C445.678 420.053 473.21 422.21 474 423C475 424 476 428.5 476 431.5C476 433.731 474.559 437.432 473.285 439.548C473.113 439.835 472.799 440 472.465 440H468L434.655 439.502C434.552 439.501 434.448 439.487 434.359 439.437C432.907 438.625 431.5 432.874 431.5 429Z" fill="#F4F4F4" stroke="#F4F4F4"/>
<path d="M436.5 430.5C436.5 425.901 439.866 422.006 441.76 420.662C441.915 420.552 442.101 420.5 442.291 420.5H455L467.983 421.462C468.307 421.486 468.602 421.665 468.759 421.949C470.06 424.305 470.53 426.739 471 430.5C471.378 433.522 468.516 437.673 466.792 439.67C466.608 439.883 466.339 440 466.058 440H456H439.515C439.192 440 438.886 439.847 438.721 439.569C437.843 438.098 436.5 434.809 436.5 430.5Z" fill="#2F231F" stroke="#2F231F"/>
<path d="M443.064 430.5C442.707 428.713 443.919 426.527 444.776 425.368C444.953 425.13 445.296 424.956 445.473 425.194C445.528 425.268 445.564 425.368 445.564 425.5C445.564 426 444.564 427.5 444.064 429.5C443.564 431.5 446.064 435.5 445.064 435.5C444.064 435.5 443.564 433 443.064 430.5L443.064 430.5Z" fill="#ECEAD9" stroke="#ECEAD9"/>
<path d="M458 467C448.06 467.382 428.804 462.923 419.262 460.345C418.623 460.173 418.084 460.67 418.508 461.178C422.861 466.386 453.818 472 458 472C462.5 472 466.5 472 474.5 470C479.219 468.82 490.029 464.124 498.589 460.202C499.67 459.706 499.399 459.002 498.252 459.318C486.991 462.413 467.337 466.641 458 467Z" fill="#A87361" stroke="#A87361"/>
<path d="M244 560.5C243.219 569.086 253.165 572.658 258.602 573.446C258.859 573.483 259.111 573.419 259.305 573.247C261.825 571.011 270.763 560.412 276.5 558.5C282.5 556.5 299 557 308 562C317 567 316 573.5 318.5 577C321 580.5 341 579 347 578.5C353 578 357.5 570 363.5 563.5C369.5 557 378 555.5 387.5 557C397 558.5 399 564 400 568C401 572 410.5 573 414.5 570C418.5 567 421 550 415.5 539C410 528 395 533 386 531C379.033 529.452 373.064 523.721 370.722 520.784C370.577 520.602 370.506 520.366 370.514 520.133C371.335 495.9 354.977 485.942 350.5 474.5C346 463 350.5 420.5 350.5 413.5C350.5 406.5 348 394.5 339 393C330 391.5 328.5 407.5 326.5 413.5C324.5 419.5 321.5 412 315 413.5C308.5 415 309.5 423 307.5 441.5C305.921 456.104 302.265 505.988 300.567 530.045C300.529 530.587 300.069 530.98 299.527 530.956C288.355 530.461 266.661 529.835 262 531C256 532.5 245 549.5 244 560.5Z" fill="#B0826B" stroke="#B0826B"/>
<path d="M329 539V431.5C329 428.667 329.7 422.9 332.5 422.5C335.252 422.107 336.942 426.512 337.473 428.879C337.492 428.96 337.498 429.038 337.495 429.122C337.162 437.686 336.704 457.251 337.5 468C338.5 481.5 350.5 493 350 507.5C349.614 518.683 345.79 532.932 343.724 539.318C343.591 539.728 343.21 540 342.779 540H330C329.448 540 329 539.552 329 539Z" fill="#A87361" stroke="#A87361"/>
<path d="M251.5 562C247.762 561.626 247.808 554.53 248.374 550.337C248.44 549.852 248.489 549.832 248.28 550.274C247.663 551.574 246.095 554.214 245.102 555.834C245.034 555.944 244.989 556.066 244.968 556.193C244.626 558.258 244 562.225 244 563C244 564 246.5 567 247 568C247.4 568.8 250.5 570.333 252 571L258.386 573.281C258.759 573.414 259.176 573.314 259.448 573.027L268 564C269.333 562.667 272.5 559.7 274.5 558.5C276.5 557.3 282.333 557 285 557C288.5 557.167 296.4 557.7 300 558.5C303.513 559.281 308.263 561.711 310.349 562.913C310.45 562.971 310.538 563.046 310.613 563.135L315.409 568.891C315.469 568.963 315.519 569.044 315.557 569.13L318.814 576.576C318.932 576.845 319.162 577.049 319.443 577.133L323.884 578.465C323.961 578.488 324.041 578.502 324.121 578.506L334 579L348.3 578.014C348.432 578.005 348.561 577.97 348.679 577.911L352.289 576.106C352.428 576.036 352.548 575.936 352.642 575.812C354.211 573.73 357.561 569.439 359.5 567.5C362 565 366.5 561 367.5 560C368.5 559 374 557 376 556.5C378 556 382.5 556.5 386 556.5C389.5 556.5 395 559 397 561.5C399 564 399.5 567 400.5 569C401.5 571 405 571 409 571.5C412.055 571.882 414.442 570.168 415.377 569.141C415.461 569.049 415.52 568.939 415.56 568.821L417.949 561.654C417.983 561.552 418 561.445 418 561.338V554.487C418 553.482 416.523 552.995 415.822 553.714C414.761 554.802 413.438 555.884 412 556.5C408.5 558 408 552.5 401.5 547C395 541.5 388.5 549.5 384 551C379.5 552.5 373.5 555 369.5 544C365.5 533 347 531.5 337.5 533.5C328 535.5 322 547 312.5 549.5C303 552 288 547 276 547C264 547 256.5 562.5 251.5 562Z" fill="#8D6151" stroke="#8D6151"/>
<path d="M325.5 571.5C325.5 566.522 333.927 562.039 342.39 558.052C342.463 558.017 342.54 557.992 342.62 557.977C347.58 557.048 352.52 560.012 355 561.5C357.5 563 357.5 568.5 356.5 570.5C355.5 572.5 350.5 576.5 349 577.5C347.5 578.5 332 579 330 578.5C328 578 325.5 576.5 325.5 571.5Z" fill="#7E5449" stroke="#7E5449"/>
</svg>
